HIERARCHY
ROOT hip
{
	OFFSET 0.000000 0.000000 0.000000 
	CHANNELS 6 Xposition Yposition Zposition Xrotation Zrotation Yrotation
	JOINT abdomen
	{
		OFFSET 0.000000 3.402643 0.000000 
		CHANNELS 3 Xrotation Zrotation Yrotation
		JOINT chest
		{
			OFFSET 0.000000 8.438565 -0.680529 
			CHANNELS 3 Xrotation Zrotation Yrotation
			JOINT neck
			{
				OFFSET 0.000000 10.207942 -0.272212 
				CHANNELS 3 Xrotation Zrotation Yrotation
				JOINT head
				{
					OFFSET 0.000000 3.130431 0.000000 
					CHANNELS 3 Xrotation Zrotation Yrotation
					End Site
					{
						OFFSET 0.000000 3.130435 0.000000 
					}
				}
			}
			JOINT lCollar
			{
				OFFSET 3.470700 6.669187 -0.816635 
				CHANNELS 3 Yrotation Zrotation Xrotation
				JOINT lShldr
				{
					OFFSET 3.198488 0.000000 0.000000 
					CHANNELS 3 Zrotation Yrotation Xrotation
					JOINT lForeArm
					{
						OFFSET 10.139888 0.000000 0.000000 
						CHANNELS 3 Yrotation Zrotation Xrotation
						JOINT lHand
						{
							OFFSET 8.370511 0.000000 0.000000 
							CHANNELS 3 Zrotation Yrotation Xrotation
							End Site
							{
								OFFSET 4.083176 0.000000 0.000000 
							}
						}
					}
				}
			}
			JOINT rCollar
			{
				OFFSET -3.470700 6.669187 -0.816635 
				CHANNELS 3 Yrotation Zrotation Xrotation
				JOINT rShldr
				{
					OFFSET -3.198488 0.000000 0.000000 
					CHANNELS 3 Zrotation Yrotation Xrotation
					JOINT rForeArm
					{
						OFFSET -10.139888 0.000000 0.000000 
						CHANNELS 3 Yrotation Zrotation Xrotation
						JOINT rHand
						{
							OFFSET -8.370511 0.000000 0.000000 
							CHANNELS 3 Zrotation Yrotation Xrotation
							End Site
							{
								OFFSET -4.083176 0.000000 0.000000 
							}
						}
					}
				}
			}
		}
	}
	JOINT lThigh
	{
		OFFSET 5.308129 -1.633274 1.361059 
		CHANNELS 3 Xrotation Zrotation Yrotation
		JOINT lShin
		{
			OFFSET -2.041588 -20.007561 0.000000 
			CHANNELS 3 Xrotation Zrotation Yrotation
			JOINT lFoot
			{
				OFFSET 0.000000 -19.190928 -1.224953 
				CHANNELS 3 Xrotation Yrotation Zrotation
				End Site
				{
					OFFSET 0.000000 -2.449906 4.627600 
				}
			}
		}
	}
	JOINT rThigh
	{
		OFFSET -5.308129 -1.633274 1.361059 
		CHANNELS 3 Xrotation Zrotation Yrotation
		JOINT rShin
		{
			OFFSET 2.041588 -20.007561 0.000000 
			CHANNELS 3 Xrotation Zrotation Yrotation
			JOINT rFoot
			{
				OFFSET 0.000000 -19.190928 -1.224953 
				CHANNELS 3 Xrotation Yrotation Zrotation
				End Site
				{
					OFFSET 0.000000 -2.449906 4.627600 
				}
			}
		}
	}
}
MOTION
Frames: 14
Frame Time: 0.033333
-23.969767 44.468094 -61.600349 -7.489695 8.230935 40.495316 53.178844 -14.073782 11.331955 -20.839844 0.000000 0.000000 -13.843135 -11.729978 -24.085430 -2.520846 -1.255050 0.218350 -4.754607 -0.109226 -0.002657 -68.902809 -9.668699 7.451122 -16.987129 7.882210 14.942720 -8.247243 -17.680416 -13.025374 4.754607 0.109226 -0.002676 36.464485 10.106721 -10.771567 70.262299 12.714202 22.717382 10.031137 -35.355167 22.246099 -17.401653 12.382314 -0.218093 64.761604 4.359129 -2.023820 -30.462261 12.066783 -19.287817 -30.864637 -30.941181 -9.499210 77.678291 1.923765 2.746787 -4.570964 -3.501436 23.113661 
-24.039423 44.746811 -59.927544 -5.940455 7.557329 42.302288 51.595688 -13.445341 12.429782 -20.839844 0.000000 0.000000 -14.489893 -13.653339 -25.536562 -2.520846 -1.255050 0.218350 -4.754607 -0.109226 -0.002657 -68.321609 -6.508428 8.042309 -15.671632 7.322320 17.646488 -5.881865 -17.946352 -13.579076 4.754607 0.109226 -0.002676 29.735338 3.780859 -14.813881 71.293686 10.503326 14.339963 8.397270 -46.187935 10.730136 -17.165525 12.810748 -1.169103 62.596348 5.725891 -3.131817 -28.199556 11.815939 -21.439926 -34.915745 -30.765121 -6.147905 70.585091 -0.810365 2.479096 -3.869552 -4.497680 21.019911 
-24.206141 45.095585 -58.001915 -3.851209 7.483255 45.337994 50.093201 -12.531903 12.319388 -20.839844 0.000000 0.000000 -13.745519 -15.634372 -26.825819 -2.520846 -1.255050 0.218350 -4.754607 -0.109226 -0.002657 -67.522194 -2.262777 7.652884 -12.240431 8.523829 18.700970 -5.172785 -16.710466 -15.614745 4.754607 0.109226 -0.002676 24.098186 -2.224808 -17.897024 70.819450 8.209917 7.216012 7.879921 -50.150501 1.206146 -16.813816 14.245936 -0.848383 59.358013 5.685784 -5.248160 -25.829874 9.220566 -22.675087 -37.015675 -31.137363 -3.351483 61.763275 -3.290695 3.740757 -0.907111 -4.124933 21.714418 
-24.411646 45.373798 -55.878796 -1.381180 8.161723 48.447056 48.832211 -12.302818 11.084000 -20.839844 0.000000 0.000000 -12.238821 -17.310812 -27.680798 -2.520846 -1.255050 0.218350 -4.754607 -0.109226 -0.002657 -64.591415 1.926026 5.244057 -6.429632 8.531921 17.170897 -6.044830 -14.477025 -17.675144 4.754607 0.109226 -0.002676 20.651867 -8.243250 -20.006062 69.933105 5.721329 7.227873 8.307413 -48.666752 2.356916 -15.826834 16.236855 0.826499 55.733471 4.226127 -7.379333 -22.963158 5.354166 -23.863268 -38.629776 -31.501553 0.010940 54.050793 -6.288652 6.889462 1.545217 -2.966081 22.857584 
-24.606043 45.471272 -53.498825 0.890878 9.403180 51.455391 47.922993 -12.385674 9.581332 -20.839844 0.000000 0.000000 -10.101733 -18.498894 -28.599840 -2.520846 -1.255050 0.218350 -4.754607 -0.109226 -0.002657 -59.561867 6.362567 2.381068 -1.994116 6.101962 15.554831 -6.594790 -11.722294 -19.140448 4.754607 0.109226 -0.002676 18.471930 -12.874310 -21.846375 68.998924 3.019524 8.806032 7.159661 -47.821941 6.680585 -13.671571 19.530710 4.396141 51.892872 1.587935 -9.604915 -19.477556 -0.485400 -24.136684 -38.876324 -29.032852 5.941405 49.092331 -11.458964 10.590556 2.653867 -4.641883 23.936687 
-24.821756 45.297642 -50.919258 2.586573 10.994919 54.234123 47.009430 -12.529350 9.034251 -20.839844 0.000000 0.000000 -7.373813 -19.256945 -29.716757 -2.520846 -1.255050 0.218350 -4.754607 -0.109226 -0.002657 -54.515110 11.714598 -0.287576 -1.120554 4.590355 13.822255 -7.534435 -9.004076 -20.822304 4.754607 0.109226 -0.002676 16.650288 -16.550253 -23.288286 68.111412 0.790547 8.480818 5.490804 -46.649780 8.342999 -10.272495 23.629040 9.131166 48.088806 -1.254206 -11.780252 -15.675192 -7.215366 -24.214588 -37.273228 -28.436275 6.938176 46.184597 -15.062464 13.671277 5.443936 -2.124157 22.208958 
-25.130167 44.817890 -48.218941 3.710490 12.455125 57.051426 45.550453 -12.156365 9.229050 -20.839844 0.000000 0.000000 -4.597682 -19.440237 -30.985390 -2.520846 -1.255050 0.218350 -4.754607 -0.109226 -0.002657 -48.659195 16.983004 -2.713107 -0.516634 3.498223 11.481150 -7.698246 -6.728301 -23.149830 4.754607 0.109226 -0.002676 15.401928 -19.138708 -24.642454 67.840111 -1.285393 6.928771 5.206518 -45.006512 7.627575 -6.816817 27.597353 13.537907 44.573147 -3.091501 -13.530797 -11.684142 -12.843143 -24.975399 -33.895588 -28.788530 7.047082 46.101833 -16.093019 14.279580 5.375133 -2.448691 27.297199 
-25.538034 44.185822 -45.545990 4.617191 13.862864 60.317989 44.812729 -11.448772 8.631664 -20.839844 0.000000 0.000000 -3.073315 -19.066530 -32.354759 -2.520846 -1.255050 0.218350 -4.754607 -0.109226 -0.002657 -43.049591 21.527725 -4.667147 -0.409850 3.361259 8.285005 -8.111407 -5.571079 -26.222870 4.754607 0.109226 -0.002676 14.565952 -20.373753 -25.446775 68.004021 -2.489681 5.560901 4.479558 -44.317356 6.757555 -4.171370 31.123587 17.382473 41.441959 -4.282366 -14.702752 -5.592394 -17.710613 -24.937466 -31.940296 -31.159889 4.957038 52.770210 -14.351460 11.889462 -8.105536 -5.855829 27.611536 
-26.108866 43.735001 -43.207634 5.123522 14.884362 62.365166 44.922756 -10.416306 7.594805 -20.839844 0.000000 0.000000 -2.943155 -19.594660 -32.025036 -2.520846 -1.255050 0.218350 -4.754607 -0.109226 -0.002657 -40.587242 24.917479 -6.264208 -0.821508 4.375516 4.387426 -8.935664 -5.006974 -29.679638 4.754607 0.109226 -0.002676 14.353485 -19.833067 -25.765219 68.976128 -2.816468 5.065952 3.451416 -43.555069 6.614418 -1.905338 34.206196 22.098480 40.275425 -5.159424 -13.263760 -0.402977 -19.991362 -20.137264 -31.336576 -33.113834 1.488252 59.051609 -12.069830 10.435829 -18.651489 -4.677600 22.272806 
-26.861763 43.606049 -41.296745 5.152214 15.234057 62.627808 45.249783 -9.232376 7.367254 -20.839844 0.000000 0.000000 -3.363648 -20.311331 -30.930365 -2.520846 -1.255050 0.218350 -4.754607 -0.109226 -0.002657 -41.865547 26.700161 -7.941474 -0.860568 4.773765 0.392978 -8.871596 -4.622734 -32.440327 4.754607 0.109226 -0.002676 15.147828 -18.194138 -25.847589 70.435181 -2.762390 5.262711 4.404587 -43.291416 6.390478 -0.666619 35.308540 24.307196 40.855225 -4.661485 -8.189652 1.231469 -14.055107 -16.047544 -31.472111 -31.657824 0.682826 62.960274 -10.953283 9.484159 -23.464441 -3.992029 18.747997 
-27.566021 43.804550 -39.765083 5.508135 15.293728 63.051334 45.161438 -8.041519 7.360803 -20.839844 0.000000 0.000000 -2.891628 -20.273649 -31.045597 -2.520846 -1.255050 0.218350 -4.754607 -0.109226 -0.002657 -45.434147 26.761305 -8.624676 -0.443816 3.850136 -1.782965 -9.602940 -3.570556 -34.276398 4.754607 0.109226 -0.002676 17.147074 -16.894804 -25.198252 70.971512 -1.926700 5.974510 4.749894 -42.572559 6.874331 -1.456487 33.804962 22.245049 42.593662 -3.831658 -2.615227 0.502740 -4.108226 -14.770890 -31.410948 -30.551910 -0.051938 64.757935 -9.743612 9.024562 -25.169956 -2.882305 15.925710 
-28.149239 44.365036 -38.556786 6.279559 15.011169 64.457283 44.648022 -6.855441 7.253668 -20.839844 0.000000 0.000000 -1.712824 -19.489336 -32.334240 -2.520846 -1.255050 0.218350 -4.754607 -0.109226 -0.002657 -49.659889 24.686647 -7.959944 0.274627 1.966710 -1.404559 -12.030677 -2.989136 -34.259552 4.754607 0.109226 -0.002676 20.253305 -17.275448 -23.836111 70.755081 -0.460442 6.756711 4.921978 -41.235104 7.255886 -2.910894 31.130302 19.021406 44.401207 -4.896358 -0.257933 -1.737284 1.399573 -15.838407 -30.276320 -30.647377 -1.639925 64.306190 -7.958931 8.756072 -25.599340 -1.864706 13.576342 
-28.682304 45.102192 -37.554615 7.277330 14.903948 65.711319 44.518909 -6.589873 7.376480 -20.839844 0.000000 0.000000 -1.254503 -18.403809 -33.563099 -2.520846 -1.255050 0.218350 -4.754607 -0.109226 -0.002657 -53.837814 22.119783 -7.302057 0.908171 0.444205 0.620199 -14.574945 -4.299424 -30.929838 4.754607 0.109226 -0.002676 24.093231 -18.369354 -22.357204 69.946533 1.071381 7.097322 5.151382 -40.152645 6.897345 -3.769717 27.225719 17.079321 45.896015 -5.775836 1.185775 -4.436792 3.301543 -18.056255 -28.861845 -30.755764 -2.828947 62.812088 -6.728436 8.502048 -25.299477 -1.690730 13.077000 
-29.155571 45.803806 -36.649921 8.117002 14.914488 66.264496 44.511204 -6.856281 7.679525 -20.839844 0.000000 0.000000 -1.832939 -17.620523 -34.074276 -2.520846 -1.255050 0.218350 -4.754607 -0.109226 -0.002657 -58.280453 20.694311 -6.782762 1.042583 0.271211 4.199041 -15.198583 -7.334381 -24.911139 4.754607 0.109226 -0.002676 28.769436 -19.141340 -21.045946 69.081558 2.366560 7.925823 5.233729 -39.746590 7.331009 -4.063019 22.675110 14.913761 47.095608 -6.479158 2.880911 -7.131880 5.850804 -20.744602 -27.652163 -29.780575 -2.881396 61.074520 -6.412653 8.112681 -24.804752 -2.543077 13.497695 
